<?xml version="1.0" encoding="utf-8"?>
<!-- Generator: Adobe Illustrator 16.0.0, SVG Export Plug-In . SVG Version: 6.00 Build 0)  -->
<!DOCTYPE svg PUBLIC "-//W3C//DTD SVG 1.1//EN" "http://www.w3.org/Graphics/SVG/1.1/DTD/svg11.dtd">
<svg version="1.1" id="Layer_1" xmlns="http://www.w3.org/2000/svg" xmlns:xlink="http://www.w3.org/1999/xlink" x="0px" y="0px"
	 width="275.146px" height="90.922px" viewBox="0 0 275.146 90.922" enable-background="new 0 0 275.146 90.922"
	 xml:space="preserve">
<g>
	<path fill="#FFFFFF" d="M119.12,20.029c0.812-0.702,2.577-1.758,5.885-1.758c2.883,0,4.494,0.813,5.349,1.516
		c0.467-0.168,1.082-0.289,1.907-0.289c1.04,0,1.88,0.189,2.464,0.377c0.825-0.714,2.453-1.604,5.46-1.604
		c3.305,0,5.07,1.056,5.882,1.758l2.876-0.41c0.031-2.179-0.019-4.058-0.068-5.425C148.574,6.044,135.286,0,129.542,0
		c-5.737,0-6.039,5.74-6.039,5.74s-7.252,6.646-7.252,9.662c0,0.569-0.042,2.107,0.005,4.217L119.12,20.029z"/>
	<path fill="#FFFFFF" d="M136.281,21.727c0.037,0.638,0.166,1.919,0.598,3.165c1.049,3.049,2.869,3.049,3.467,3.049
		c3.393,0,3.965-4.642,4.062-6.157c-0.47-0.378-1.702-1.092-4.224-1.092C137.742,20.691,136.668,21.377,136.281,21.727z"/>
	<path fill="#FFFFFF" d="M149.827,21.933l-3.032,0.435c-0.277,3.238-1.839,7.991-6.449,7.991c-4.718,0-6.243-4.974-6.464-8.212
		c-0.385-0.117-0.939-0.23-1.621-0.23c-0.443,0-0.747,0.05-0.939,0.1c-0.192,3.234-1.701,8.343-6.478,8.343
		c-4.613,0-6.175-4.753-6.449-7.991l-3.04-0.435c-0.852,0.818-1.372,2.128-1.293,3.581c0.111,2.083,1.414,3.749,3.037,4.041
		c1.445,9.068,5.253,19.077,15.162,19.077c10.441,0,14.435-9.667,15.901-19.092c1.587-0.325,2.859-1.977,2.968-4.026
		C151.209,24.061,150.688,22.751,149.827,21.933z"/>
	<path fill="#FFFFFF" d="M120.778,21.795c0.048,0.655,0.184,1.894,0.599,3.097c1.046,3.049,2.868,3.049,3.467,3.049
		c3.445,0,3.983-4.783,4.064-6.224c-0.363-0.32-1.434-1.025-3.903-1.025C122.522,20.691,121.274,21.405,120.778,21.795z"/>
</g>
<path fill="#FFFFFF" d="M164.801,61.923c-1.811-8.457-7.854-10.272-13.507-11.781c-5.652-1.51-6.955-2.729-6.955-2.729
	l-7.529,15.322l-4.214,17.796l-4.214-17.796l-7.532-15.322c0,0-1.303,1.22-6.952,2.729c-5.652,1.509-11.696,3.324-13.511,11.781
	c-1.809,8.462-1.51,21.448-1.51,21.448s8.407,6.615,31.277,7.463l-0.021,0.088c0.84,0,1.658-0.008,2.463-0.021
	c0.805,0.014,1.623,0.021,2.461,0.021l-0.021-0.088c22.87-0.848,31.274-7.463,31.274-7.463S166.608,70.385,164.801,61.923z
	 M103.696,80.602c0.021-4.1,0.221-12.068,1.422-17.661c0.97-4.527,3.319-6.117,7.84-7.505l9.045,5.277l1.799,3.663l5.106,21.564
	C114.827,85.241,106.992,82.239,103.696,80.602z M136.283,85.94l5.102-21.564l1.801-3.663l9.048-5.277
	c4.521,1.388,6.87,2.978,7.838,7.505c1.2,5.593,1.4,13.562,1.419,17.661C158.196,82.239,150.361,85.241,136.283,85.94z"/>
<path fill="#FFFFFF" d="M81.131,32.347c-1.261-3.774-3.066-7.37-5.403-10.691l-0.833-1.14c-3.759-4.976-8.654-9.103-14.181-11.944
	c-5.898-3.04-12.265-4.582-18.933-4.582c-18.286,0-33.83,11.899-39.333,28.357c0,0-2.302,6.07-2.302,13.115
	c0,7.04,2.302,13.115,2.302,13.115C7.951,75.035,23.5,86.936,41.781,86.936c6.668,0,13.034-1.543,18.933-4.578
	c5.526-2.847,10.422-6.976,14.181-11.949l0.833-1.142c2.335-3.317,4.138-6.917,5.403-10.689c0,0,2.201-6.094,2.201-13.115
	C83.332,38.438,81.131,32.347,81.131,32.347z M72.526,25.105c1.521,2.287,2.77,4.715,3.73,7.241H66.084
	c-0.506-2.505-1.16-4.933-1.958-7.241H72.526z M68.924,20.516H62.29c-0.641-1.381-1.331-2.7-2.06-3.932
	c-1.052-1.766-2.19-3.367-3.403-4.793C61.393,13.839,65.515,16.807,68.924,20.516z M61.4,32.347H22.169
	c0.556-2.529,1.274-4.956,2.15-7.241H59.25C60.126,27.391,60.845,29.817,61.4,32.347z M41.781,8.58
	c5.382,0,10.533,3.678,14.5,10.354c0.304,0.505,0.599,1.034,0.891,1.582H26.397c0.287-0.548,0.586-1.077,0.885-1.582
	C31.255,12.258,36.401,8.58,41.781,8.58z M26.741,11.791c-1.212,1.426-2.355,3.027-3.402,4.793c-0.733,1.231-1.424,2.551-2.06,3.932
	h-6.635C18.055,16.807,22.179,13.839,26.741,11.791z M11.045,25.105h8.393c-0.797,2.309-1.452,4.736-1.957,7.241H7.311
	C8.278,29.82,9.524,27.393,11.045,25.105z M11.045,65.816c-1.521-2.282-2.767-4.713-3.734-7.239h10.17
	c0.505,2.506,1.16,4.936,1.957,7.239H11.045z M14.645,70.408h6.635c0.636,1.381,1.326,2.697,2.06,3.93
	c1.047,1.765,2.19,3.371,3.402,4.795C22.179,77.085,18.055,74.114,14.645,70.408z M22.169,58.577H61.4
	c-0.556,2.531-1.274,4.961-2.15,7.239H24.319C23.443,63.538,22.725,61.104,22.169,58.577z M41.781,82.344
	c-5.38,0-10.526-3.678-14.499-10.351c-0.299-0.511-0.598-1.037-0.885-1.585h30.774c-0.292,0.548-0.587,1.074-0.891,1.585
	C52.314,78.666,47.163,82.344,41.781,82.344z M56.822,79.133c1.218-1.424,2.356-3.03,3.408-4.795c0.729-1.232,1.424-2.551,2.06-3.93
	h6.634C65.515,74.114,61.393,77.085,56.822,79.133z M72.526,65.816h-8.4c0.798-2.304,1.452-4.733,1.958-7.239h10.173
	C75.296,61.104,74.047,63.534,72.526,65.816z M73.089,52.092h-4.314l-2.926-8.53l-2.868,8.53h-4.364l-4.805-11.884l-4.884,11.884
	h-4.309l-2.924-8.53l-2.876,8.53h-4.356l-4.81-11.884l-4.876,11.884h-4.314l-2.926-8.53l-2.871,8.53h-4.359L4.939,38.827h4.364
	l3.175,8.694l2.923-8.694h4.328l2.826,8.694l3.239-8.694h3.303h1.125h3.231l3.183,8.694l2.916-8.694h4.328l2.826,8.694l3.246-8.694
	h3.296h1.125h3.239l3.175,8.694l2.928-8.694h4.326l2.825,8.694l3.239-8.694h4.428L73.089,52.092z"/>
<path fill="#FFFFFF" d="M274.698,33.928c0,0,1.146-3.021-3.025-4.065c0,0-3.33-1.874-4.162,4.376c-0.833,6.25,0,8.127,0,8.127
	l-32.509,38.97l-41.471-12.709c0,0-4.376-3.336-4.796-7.921c-0.415-4.587,1.46-9.171,6.462-7.712
	c5.002,1.46,36.677,10.837,36.677,10.837s2.502,1.46,3.961-0.206c1.459-1.668,38.55-45.432,38.55-45.432s1.146-1.459,0.626-3.231
	c-0.521-1.772-0.939-2.188-5.106-2.916c-4.166-0.731-42.092-9.38-42.092-9.38s-2.193-0.729-4.587,1.877
	c-2.396,2.605-37.197,41.157-37.197,41.157s-4.172,5.629-4.172,14.38c0,8.753,5.109,13.651,8.965,15.11
	c3.856,1.459,43.034,13.022,43.034,13.022s1.666,0.313,2.705,0c1.044-0.309,2.605-1.768,2.605-1.768l35.425-42.62
	c0,0,0.42-1.044,0.107-1.772c-0.313-0.73-1.253-2.083-1.042-3.542C273.865,37.053,274.698,33.928,274.698,33.928z M220.814,19.392
	L220.814,19.392c0.093-0.131,0.192-0.259,0.299-0.388c3.486-4.147,13.148-5.258,21.584-2.481
	c8.431,2.776,13.061,8.663,10.339,13.152c-0.083,0.138-0.176,0.273-0.269,0.406l0.04,0.015c0,0-1.734,2.896-8.597,4.473
	c-7.019,1.502-7.551,3.578-7.551,3.578l-7.595-2.589l-0.043-0.015l-7.596-2.591c0,0,2.071-1.538-0.484-6.253
	C218.551,22.059,220.814,19.392,220.814,19.392z M218.886,35.479c0.271-0.352,1.157-0.413,1.972-0.136l13.34,4.561
	c0.812,0.278,1.274,0.805,1.032,1.168c-0.244,0.37-1.11,0.438-1.929,0.161l-13.429-4.604
	C219.049,36.353,218.607,35.833,218.886,35.479z M216.472,38.595c0.273-0.354,1.166-0.41,1.994-0.128l13.559,4.663
	c0.825,0.284,1.298,0.815,1.056,1.182c-0.244,0.367-1.12,0.432-1.95,0.146l-13.654-4.703
	C216.65,39.471,216.197,38.948,216.472,38.595z M214.054,41.71c0.275-0.354,1.183-0.405,2.02-0.113l13.774,4.758
	c0.841,0.289,1.324,0.825,1.082,1.193c-0.244,0.365-1.132,0.427-1.974,0.135l-2.134-0.737c-0.334,0.332-0.918,0.438-1.459,0.249
	l-7.553-2.615c-0.541-0.189-0.769-0.576-0.594-0.958l-2.131-0.736C214.244,42.589,213.776,42.066,214.054,41.71z"/>
<g>
	<path fill="#FFFFFF" d="M223.976,24.872c-0.67-0.223-1.168-0.614-1.232-1.018c-0.166-1.163,0.15-2.242,0.94-3.21
		c2.939-3.598,11.297-4.557,18.637-2.131c0.928,0.306,1.411,0.939,1.079,1.411c-0.334,0.475-1.357,0.61-2.297,0.297
		c-5.533-1.837-11.781-1.117-13.924,1.595c-0.577,0.729-0.798,1.54-0.665,2.408c0.088,0.561-0.681,0.931-1.723,0.823
		C224.502,25.02,224.225,24.958,223.976,24.872z"/>
</g>
</svg>
