<?xml version="1.0" encoding="utf-8"?>
<!-- Generator: Adobe Illustrator 16.0.0, SVG Export Plug-In . SVG Version: 6.00 Build 0)  -->
<!DOCTYPE svg PUBLIC "-//W3C//DTD SVG 1.1//EN" "http://www.w3.org/Graphics/SVG/1.1/DTD/svg11.dtd">
<svg version="1.1" id="Layer_1" xmlns="http://www.w3.org/2000/svg" xmlns:xlink="http://www.w3.org/1999/xlink" x="0px" y="0px"
	 width="285px" height="24.045px" viewBox="0 0 285 24.045" enable-background="new 0 0 285 24.045" xml:space="preserve">
<g>
	<path fill="#FFFFFF" d="M31.464,5.297c0.214-0.186,0.681-0.465,1.556-0.465c0.763,0,1.188,0.215,1.415,0.401
		c0.123-0.045,0.286-0.077,0.504-0.077c0.275,0,0.497,0.051,0.651,0.1c0.219-0.188,0.649-0.424,1.444-0.424
		c0.874,0,1.341,0.279,1.556,0.465l0.761-0.108c0.008-0.576-0.006-1.073-0.019-1.435C39.253,1.599,35.738,0,34.22,0
		c-1.518,0-1.598,1.518-1.598,1.518s-1.917,1.758-1.917,2.556c0,0.15-0.012,0.558,0.001,1.115L31.464,5.297z"/>
	<path fill="#FFFFFF" d="M36.002,5.746c0.01,0.168,0.044,0.507,0.158,0.837c0.277,0.806,0.759,0.806,0.916,0.806
		c0.897,0,1.049-1.227,1.075-1.628c-0.125-0.1-0.45-0.289-1.117-0.289C36.389,5.472,36.104,5.653,36.002,5.746z"/>
	<path fill="#FFFFFF" d="M39.584,5.8l-0.802,0.115c-0.073,0.856-0.486,2.113-1.706,2.113c-1.247,0-1.65-1.315-1.709-2.172
		c-0.102-0.03-0.248-0.061-0.429-0.061c-0.117,0-0.197,0.013-0.248,0.026c-0.051,0.855-0.45,2.206-1.714,2.206
		c-1.22,0-1.633-1.257-1.705-2.113L30.468,5.8c-0.226,0.217-0.363,0.563-0.342,0.947c0.029,0.551,0.374,0.991,0.803,1.068
		c0.382,2.398,1.39,5.046,4.01,5.046c2.762,0,3.817-2.557,4.205-5.049c0.42-0.087,0.756-0.523,0.785-1.065
		C39.949,6.363,39.812,6.017,39.584,5.8z"/>
	<path fill="#FFFFFF" d="M31.902,5.764c0.013,0.173,0.048,0.501,0.158,0.819c0.276,0.806,0.759,0.806,0.916,0.806
		c0.911,0,1.054-1.265,1.075-1.646c-0.096-0.085-0.379-0.271-1.032-0.271C32.363,5.472,32.033,5.661,31.902,5.764z"/>
</g>
<path fill="#FFFFFF" d="M43.544,16.376c-0.479-2.236-2.077-2.717-3.572-3.116c-1.494-0.398-1.839-0.722-1.839-0.722l-1.991,4.053
	l-1.114,4.706l-1.114-4.706l-1.992-4.053c0,0-0.345,0.323-1.839,0.722c-1.494,0.399-3.093,0.88-3.573,3.116
	c-0.478,2.237-0.398,5.672-0.398,5.672s2.223,1.75,8.271,1.974l-0.006,0.023c0.222,0,0.438-0.002,0.651-0.006
	c0.213,0.004,0.429,0.006,0.65,0.006l-0.006-0.023c6.049-0.224,8.271-1.974,8.271-1.974S44.022,18.613,43.544,16.376z
	 M27.385,21.315c0.006-1.084,0.059-3.191,0.376-4.67c0.256-1.197,0.878-1.618,2.073-1.985l2.392,1.396l0.476,0.969l1.351,5.703
	C30.328,22.543,28.256,21.749,27.385,21.315z M36.002,22.728l1.35-5.703l0.477-0.969l2.393-1.396
	c1.195,0.367,1.816,0.788,2.072,1.985c0.317,1.479,0.37,3.586,0.376,4.67C41.798,21.749,39.726,22.543,36.002,22.728z"/>
<path fill="#FFFFFF" d="M21.417,8.555c-0.333-0.999-0.811-1.949-1.429-2.828l-0.221-0.301c-0.994-1.316-2.288-2.407-3.75-3.159
	c-1.56-0.804-3.244-1.212-5.007-1.212c-4.836,0-8.947,3.147-10.402,7.5c0,0-0.608,1.604-0.608,3.468
	c0,1.862,0.608,3.469,0.608,3.469c1.455,4.353,5.567,7.499,10.402,7.499c1.763,0,3.447-0.407,5.007-1.21
	c1.462-0.753,2.756-1.845,3.75-3.16l0.221-0.302c0.617-0.878,1.094-1.829,1.429-2.827c0,0,0.582-1.611,0.582-3.469
	S21.417,8.555,21.417,8.555z M19.142,6.64c0.402,0.604,0.732,1.246,0.986,1.915h-2.69C17.304,7.892,17.131,7.25,16.92,6.64H19.142z
	 M18.188,5.426h-1.754c-0.17-0.365-0.353-0.714-0.545-1.04c-0.278-0.467-0.579-0.891-0.9-1.268
	C16.197,3.66,17.287,4.444,18.188,5.426z M16.199,8.555H5.824C5.971,7.886,6.161,7.243,6.393,6.64h9.237
	C15.862,7.243,16.052,7.886,16.199,8.555z M11.011,2.27c1.423,0,2.785,0.973,3.835,2.737c0.08,0.134,0.158,0.273,0.235,0.419H6.942
	C7.019,5.28,7.098,5.141,7.177,5.007C8.227,3.242,9.588,2.27,11.011,2.27z M7.033,3.118C6.713,3.495,6.41,3.919,6.134,4.386
	c-0.194,0.326-0.377,0.675-0.545,1.04H3.834C4.736,4.444,5.826,3.66,7.033,3.118z M2.882,6.64h2.22
	C4.891,7.25,4.718,7.892,4.584,8.555H1.895C2.15,7.886,2.479,7.244,2.882,6.64z M2.882,17.405c-0.402-0.604-0.731-1.246-0.987-1.914
	h2.689c0.134,0.662,0.307,1.305,0.518,1.914H2.882z M3.834,18.62h1.755c0.168,0.365,0.351,0.713,0.545,1.039
	c0.276,0.467,0.579,0.892,0.899,1.269C5.826,20.386,4.736,19.6,3.834,18.62z M5.824,15.491h10.375
	c-0.147,0.669-0.337,1.312-0.569,1.914H6.393C6.161,16.803,5.971,16.159,5.824,15.491z M11.011,21.776
	c-1.423,0-2.784-0.973-3.834-2.737c-0.079-0.135-0.158-0.274-0.234-0.419h8.139c-0.077,0.145-0.155,0.284-0.235,0.419
	C13.796,20.804,12.434,21.776,11.011,21.776z M14.988,20.928c0.322-0.377,0.623-0.802,0.901-1.269
	c0.192-0.326,0.376-0.675,0.545-1.039h1.754C17.287,19.6,16.197,20.386,14.988,20.928z M19.142,17.405H16.92
	c0.211-0.609,0.384-1.252,0.518-1.914h2.69C19.874,16.159,19.544,16.802,19.142,17.405z M19.29,13.776h-1.141l-0.773-2.256
	l-0.759,2.256h-1.154l-1.271-3.143L12.9,13.776h-1.14l-0.772-2.256l-0.761,2.256H9.075l-1.271-3.143l-1.29,3.143H5.373L4.6,11.521
	l-0.76,2.256H2.688l-1.42-3.508h1.154l0.84,2.299l0.772-2.299h1.145l0.748,2.299l0.856-2.299h0.873h0.298h0.854l0.842,2.299
	l0.771-2.299h1.145l0.748,2.299l0.858-2.299h0.871h0.298h0.856l0.84,2.299l0.774-2.299h1.144l0.748,2.299l0.856-2.299h1.171
	L19.29,13.776z"/>
<g>
	<path fill="#FFFFFF" d="M86.047,14.796h0.05L90.08,2.519h3.933l3.731,12.277h0.051l3.578-12.277h5.143l-6.075,19.008H95.4
		L92.071,10.51h-0.051l-3.73,11.017h-5.017L77.603,2.519h5.143L86.047,14.796z"/>
	<path fill="#FFFFFF" d="M113.789,6.704V9.88h5.57v4.185h-5.57v3.276h5.873v4.186h-10.814V2.519h10.814v4.186H113.789z"/>
	<path fill="#FFFFFF" d="M123.444,21.526V2.519h7.057c3.378,0,5.646,1.311,5.646,4.941c0,1.714-0.555,3.1-2.092,3.882v0.05
		c2.723,0.354,3.882,2.193,3.882,4.841c0,3.982-3.403,5.294-6.882,5.294H123.444z M128.384,9.98h0.555
		c1.311,0,2.673-0.227,2.673-1.84c0-1.74-1.538-1.84-2.875-1.84h-0.353V9.98z M128.384,17.745h0.63c1.462,0,3.933,0.075,3.933-2.017
		c0-2.294-2.445-2.067-4.058-2.067h-0.505V17.745z"/>
	<path fill="#FFFFFF" d="M140.509,2.519h7.007c5.295,0,9.655,4.16,9.655,9.504c0,5.345-4.387,9.504-9.655,9.504h-7.007V2.519z
		 M145.449,17.341h1.108c2.95,0,5.47-1.612,5.47-5.318c0-3.402-2.242-5.318-5.419-5.318h-1.159V17.341z"/>
	<path fill="#FFFFFF" d="M164.771,6.704V9.88h5.57v4.185h-5.57v3.276h5.873v4.186H159.83V2.519h10.814v4.186H164.771z"/>
	<path fill="#FFFFFF" d="M182.574,14.064l4.613-11.546h5.369l-8.116,19.008h-3.833l-7.99-19.008h5.369L182.574,14.064z"/>
	<path fill="#FFFFFF" d="M203.68,7.41c-0.909-0.757-2.068-1.262-3.277-1.262c-0.907,0-2.117,0.53-2.117,1.589
		c0,1.109,1.336,1.537,2.192,1.814l1.26,0.379c2.648,0.78,4.688,2.117,4.688,5.192c0,1.891-0.453,3.831-1.965,5.117
		c-1.487,1.261-3.479,1.79-5.395,1.79c-2.395,0-4.74-0.808-6.681-2.169l2.117-3.981c1.235,1.083,2.697,1.966,4.387,1.966
		c1.159,0,2.394-0.58,2.394-1.916c0-1.386-1.94-1.865-2.998-2.167c-3.102-0.884-5.144-1.69-5.144-5.37
		c0-3.857,2.749-6.378,6.555-6.378c1.915,0,4.261,0.605,5.949,1.562L203.68,7.41z"/>
	<path fill="#FFFFFF" d="M216.333,21.526h-4.94V6.704h-4.084V2.519h13.106v4.186h-4.082V21.526z"/>
	<path fill="#FFFFFF" d="M242.271,11.669c0,6.151-4.412,10.487-10.511,10.487c-6.101,0-10.514-4.336-10.514-10.487
		c0-5.747,5.043-9.78,10.514-9.78C237.229,1.889,242.271,5.922,242.271,11.669z M226.39,11.694c0,3.278,2.421,5.673,5.371,5.673
		c2.947,0,5.368-2.395,5.368-5.673c0-2.621-2.421-5.016-5.368-5.016C228.811,6.679,226.39,9.073,226.39,11.694z"/>
	<path fill="#FFFFFF" d="M260.371,21.526h-6.151l-4.663-7.311h-0.051v7.311h-4.941V2.519h7.387c3.756,0,6.605,1.79,6.605,5.849
		c0,2.622-1.463,4.891-4.16,5.369L260.371,21.526z M249.506,11.039h0.48c1.613,0,3.428-0.302,3.428-2.368
		c0-2.068-1.814-2.37-3.428-2.37h-0.48V11.039z"/>
	<path fill="#FFFFFF" d="M258.611,2.519h5.924l3.554,5.168l3.557-5.168h5.924l-7.009,9.881v9.127h-4.941v-9.127L258.611,2.519z"/>
</g>
<path fill="#FFFFFF" d="M72.607,8.973c0,0,0.303-0.799-0.801-1.075c0,0-0.88-0.496-1.101,1.157c-0.22,1.652,0,2.149,0,2.149
	L62.109,21.51l-10.968-3.361c0,0-1.157-0.882-1.268-2.095s0.386-2.425,1.708-2.039c1.323,0.386,9.7,2.866,9.7,2.866
	s0.661,0.386,1.047-0.055c0.387-0.441,10.195-12.015,10.195-12.015s0.303-0.386,0.165-0.855c-0.138-0.469-0.248-0.578-1.35-0.771
	c-1.103-0.193-11.132-2.48-11.132-2.48s-0.58-0.193-1.213,0.496c-0.634,0.688-9.838,10.885-9.838,10.885s-1.103,1.488-1.103,3.803
	s1.351,3.609,2.371,3.996c1.02,0.386,11.38,3.443,11.38,3.443s0.441,0.083,0.716,0c0.276-0.081,0.689-0.468,0.689-0.468
	l9.368-11.271c0,0,0.11-0.276,0.028-0.469c-0.083-0.193-0.332-0.551-0.276-0.937S72.607,8.973,72.607,8.973z M58.357,5.128
	L58.357,5.128c0.024-0.034,0.051-0.068,0.079-0.103c0.922-1.097,3.477-1.391,5.708-0.656c2.229,0.734,3.453,2.291,2.733,3.479
	c-0.021,0.036-0.046,0.072-0.07,0.107l0.011,0.004c0,0-0.459,0.766-2.273,1.183c-1.856,0.397-1.997,0.946-1.997,0.946l-2.009-0.685
	l-0.012-0.004L58.52,8.715c0,0,0.548-0.407-0.129-1.654C57.759,5.833,58.357,5.128,58.357,5.128z M57.847,9.383
	c0.072-0.093,0.307-0.109,0.521-0.036l3.528,1.206c0.215,0.074,0.337,0.213,0.272,0.309c-0.064,0.099-0.293,0.116-0.51,0.043
	l-3.551-1.217C57.891,9.613,57.773,9.477,57.847,9.383z M57.209,10.207c0.072-0.094,0.308-0.109,0.527-0.034l3.585,1.233
	c0.219,0.075,0.344,0.216,0.279,0.312s-0.296,0.114-0.516,0.038l-3.61-1.243C57.256,10.438,57.136,10.3,57.209,10.207z
	 M56.569,11.03c0.073-0.093,0.312-0.107,0.534-0.029l3.643,1.258c0.223,0.076,0.351,0.219,0.286,0.315s-0.299,0.113-0.522,0.036
	l-0.563-0.195c-0.089,0.088-0.243,0.116-0.386,0.065l-1.998-0.691c-0.143-0.05-0.203-0.152-0.156-0.253l-0.563-0.195
	C56.619,11.263,56.496,11.125,56.569,11.03z"/>
<g>
	<path fill="#FFFFFF" d="M59.193,6.578c-0.178-0.06-0.309-0.163-0.326-0.27c-0.044-0.308,0.04-0.593,0.249-0.85
		c0.777-0.951,2.987-1.204,4.929-0.563c0.245,0.081,0.373,0.249,0.285,0.374c-0.089,0.125-0.359,0.161-0.607,0.078
		c-1.464-0.485-3.116-0.296-3.683,0.422c-0.152,0.192-0.211,0.407-0.176,0.637c0.023,0.148-0.18,0.246-0.455,0.218
		C59.332,6.616,59.259,6.601,59.193,6.578z"/>
</g>
<g>
	<path fill="#FFFFFF" d="M279.052,6.257V3.151h-1.108V2.519h2.971v0.633h-1.107v3.105H279.052z"/>
	<path fill="#FFFFFF" d="M281.39,6.257V2.519h1.13l0.678,2.55l0.671-2.55H285v3.738h-0.701V3.314l-0.741,2.942h-0.727l-0.74-2.942
		v2.942H281.39z"/>
</g>
</svg>
