<?xml version="1.0" encoding="utf-8"?>
<!-- Generator: Adobe Illustrator 16.0.0, SVG Export Plug-In . SVG Version: 6.00 Build 0)  -->
<!DOCTYPE svg PUBLIC "-//W3C//DTD SVG 1.1//EN" "http://www.w3.org/Graphics/SVG/1.1/DTD/svg11.dtd">
<svg version="1.1" xmlns="http://www.w3.org/2000/svg" xmlns:xlink="http://www.w3.org/1999/xlink" x="0px" y="0px" width="47px"
	 height="95.604px" viewBox="0 0 47 95.604" enable-background="new 0 0 47 95.604" xml:space="preserve">
<g id="off">
	<path fill="#757777" d="M23.501,0C10.522,0,0,10.522,0,23.501s10.522,23.5,23.501,23.5c12.979,0,23.501-10.521,23.501-23.5
		S36.48,0,23.501,0z M19.635,19.664h0.059v-0.116h0.058v-0.116l0.116-0.059v-0.116h0.059v-0.116l0.115-0.059l0.117-0.349
		l0.115-0.058V18.56c0.085-0.146,0.185-0.203,0.233-0.407c0.116,0.039,0.232,0.078,0.349,0.116l0.059,0.117l0.232,0.058l0.058,0.116
		c0.116,0.039,0.232,0.078,0.349,0.116l0.059,0.116l0.232,0.058l0.058,0.116l0.233,0.059l0.058,0.116l0.232,0.058l0.059,0.117
		l0.232,0.058l0.058,0.116c0.116,0.039,0.232,0.078,0.349,0.117l0.059,0.116l0.232,0.058l0.059,0.116l0.232,0.058l0.058,0.117
		c0.117,0.039,0.233,0.077,0.35,0.116l0.058,0.116l0.232,0.059l0.059,0.116l0.232,0.058l0.058,0.117l0.232,0.058l0.059,0.116
		c0.116,0.039,0.232,0.078,0.349,0.116l0.059,0.116l0.232,0.058l0.058,0.116l0.232,0.059l0.059,0.116
		c0.116,0.039,0.232,0.077,0.349,0.116l0.059,0.116h0.116v0.059h0.116l0.059,0.116l0.232,0.058l0.058,0.116h0.116v0.058h0.117
		l0.057,0.116c0.116,0.039,0.233,0.078,0.35,0.116l0.058,0.116l0.232,0.058l0.059,0.116h0.116v0.059h0.116l0.116,0.116
		c-0.033,0.117,0.007,0.05-0.058,0.116l-0.059,0.174H28.18v0.116h-0.058v0.116l-0.116,0.058c-0.039,0.116-0.078,0.233-0.116,0.349
		l-0.116,0.058l-0.059,0.232l-0.116,0.058v0.116h-0.058v0.116l-0.117,0.058v0.116h-0.058c-0.104-0.114-0.127-0.048-0.232-0.116
		l-0.058-0.116H26.96V24.14h-0.117l-0.058-0.116h-0.116v-0.058h-0.116l-0.059-0.116c-0.116-0.039-0.232-0.078-0.349-0.116
		l-0.059-0.117l-0.232-0.058l-0.058-0.117l-0.232-0.058l-0.059-0.116l-0.232-0.058l-0.058-0.116l-0.233-0.058l-0.058-0.116
		c-0.116-0.039-0.232-0.078-0.349-0.116l-0.059-0.117l-0.232-0.058l-0.058-0.117l-0.232-0.058l-0.059-0.116
		c-0.116-0.039-0.232-0.078-0.349-0.117l-0.059-0.116l-0.232-0.058l-0.058-0.116l-0.233-0.058l-0.058-0.117h-0.116v-0.058h-0.116
		l-0.058-0.116c-0.117-0.039-0.233-0.078-0.35-0.117l-0.058-0.116l-0.232-0.058l-0.059-0.117h-0.116v-0.058h-0.116l-0.059-0.116
		c-0.116-0.039-0.232-0.078-0.349-0.116l-0.058-0.116L21.03,20.71l-0.059-0.116l-0.232-0.059l-0.058-0.116
		c-0.117-0.039-0.233-0.077-0.35-0.116l-0.059-0.116h-0.115v-0.058h-0.117l-0.058-0.116h-0.116v-0.058h-0.116v-0.058l-0.174-0.058
		L19.635,19.664z M18.298,23.326v-0.232h0.058c0.02-0.136,0.039-0.271,0.058-0.407h0.059v-0.058h0.175v0.058
		c0.136,0.02,0.271,0.039,0.407,0.059v0.058h0.232v0.058h0.232v0.058h0.175v0.058h0.232v0.058h0.232v0.058
		c0.135,0.02,0.271,0.039,0.406,0.058v0.058c0.155,0.02,0.311,0.039,0.466,0.058c0.928,0.335,2.034,0.539,2.965,0.872
		c0.232,0.039,0.465,0.078,0.697,0.116v0.058h0.174v0.058H25.1v0.058h0.232v0.059c0.136,0.019,0.271,0.038,0.406,0.058v0.058
		c0.155,0.019,0.311,0.039,0.466,0.058c0.303,0.109,0.669,0.25,1.047,0.291c-0.059,0.174-0.117,0.349-0.175,0.523v0.232h-0.059
		c-0.02,0.136-0.039,0.271-0.058,0.407h-0.059v0.232h-0.059c-0.02,0.136-0.038,0.271-0.058,0.407h-0.058v0.058h-0.233v-0.058
		c-0.136-0.02-0.271-0.039-0.407-0.058V26.64h-0.232v-0.058h-0.231v-0.059H25.39v-0.058h-0.174v-0.058h-0.233v-0.058H24.75v-0.058
		c-0.135-0.02-0.271-0.039-0.407-0.058v-0.058c-0.154-0.02-0.31-0.039-0.464-0.058c-0.799-0.288-1.762-0.47-2.559-0.756
		c-0.232-0.039-0.465-0.077-0.697-0.116v-0.058h-0.175v-0.058c-0.213-0.039-0.426-0.078-0.64-0.116v-0.058h-0.231v-0.058
		c-0.156-0.02-0.311-0.039-0.466-0.058c-0.346-0.125-0.769-0.27-1.162-0.349L18.298,23.326z M17.6,26.698
		c3.022,0.271,6.047,0.542,9.069,0.814v0.058c-0.123,0.141,0.002,0.422-0.059,0.64c-0.095,0.343-0.118,0.779-0.116,1.221
		c-3.022-0.271-6.046-0.542-9.068-0.814C17.484,27.977,17.542,27.337,17.6,26.698z M17.31,30.011h9.127v1.919H17.31V30.011z
		 M29.517,35.011H14.461v-9.417c0.379-0.141,1.087-0.061,1.569-0.058V33.5h11.917v-7.906c0.38-0.141,1.087-0.061,1.569-0.058V35.011
		z M30.099,21.524v0.058h-0.116l-0.058,0.116h-0.117l-0.058,0.116h-0.116l-0.059,0.116h-0.116l-0.058,0.116h-0.117l-0.058,0.116
		H29.11l-0.059,0.116c-0.114,0.096-0.222,0.148-0.406,0.174v-0.116c-0.155-0.105-0.185-0.25-0.291-0.407l-0.116-0.058v-0.117
		l-0.116-0.058v-0.116l-0.116-0.058v-0.116L27.89,21.35v-0.116h-0.059l-0.058-0.174l-0.116-0.058v-0.116l-0.175-0.116v-0.116
		l-0.116-0.058l-0.059-0.175h-0.057v-0.116l-0.117-0.058v-0.116l-0.116-0.058v-0.117l-0.116-0.058V19.78l-0.174-0.116v-0.116
		l-0.117-0.059l-0.058-0.174h-0.059v-0.117l-0.116-0.058v-0.116l-0.116-0.059V18.85l-0.116-0.058v-0.116h-0.059l-0.058-0.174
		l-0.116-0.058v-0.116l-0.175-0.116v-0.117l-0.115-0.058l-0.059-0.174h-0.059v-0.116l-0.116-0.058v-0.116l-0.116-0.058v-0.116
		l-0.116-0.058v-0.117l-0.116-0.058v-0.116l-0.175-0.116v-0.116l-0.116-0.058l-0.058-0.174h-0.059v-0.116l-0.116-0.058v-0.116
		l-0.116-0.058v-0.116l-0.116-0.059v-0.116l-0.116-0.058v-0.116l-0.174-0.116c-0.146-0.207-0.215-0.482-0.407-0.64v-0.058h0.058
		c0.137-0.162,0.343-0.227,0.523-0.349l0.059-0.116h0.115l0.059-0.116h0.116c0.216-0.144,0.41-0.39,0.698-0.465v0.059
		c0.143,0.096,0.135,0.204,0.232,0.348l0.116,0.059l0.059,0.174h0.058v0.116l0.116,0.058v0.116l0.116,0.058v0.116h0.058l0.059,0.175
		l0.116,0.058v0.116l0.174,0.116v0.116l0.117,0.058l0.058,0.174h0.059v0.116l0.116,0.058v0.117l0.116,0.058v0.116l0.116,0.058v0.117
		l0.175,0.116v0.116l0.116,0.058l0.059,0.174h0.057v0.116l0.116,0.058v0.116h0.059l0.059,0.175l0.116,0.058v0.116l0.116,0.058v0.116
		l0.174,0.116v0.116l0.117,0.058v0.116l0.115,0.059v0.116l0.117,0.058v0.116h0.058l0.059,0.174l0.116,0.058v0.116l0.116,0.058v0.117
		l0.174,0.116v0.116l0.116,0.058l0.059,0.174h0.058v0.117l0.117,0.058v0.116l0.115,0.058v0.116h0.059l0.059,0.174l0.115,0.058v0.116
		l0.117,0.059v0.116l0.174,0.116v0.116l0.117,0.058v0.116l0.115,0.058v0.116l0.117,0.058v0.116h0.058
		c0.054,0.08,0.04,0.103,0.058,0.232L30.099,21.524z M31.087,21.233c-0.159,0.047-0.281,0.005-0.407,0.059v-0.059
		c-0.141-0.168-0.04-0.45-0.116-0.698c-0.148-0.488-0.2-1.13-0.349-1.627V18.56c-0.181-0.601-0.227-1.378-0.407-1.977
		c-0.02-0.232-0.039-0.465-0.058-0.698c-0.153-0.501-0.197-1.176-0.349-1.686v-0.348c-0.131-0.429-0.239-1.024-0.291-1.512
		l0.059-0.058c0.619-0.097,1.24-0.194,1.86-0.291c0.007,0.307,0.102,0.631,0.174,0.872v0.407h0.059v0.291h0.058v0.349h0.058
		c0.02,0.233,0.039,0.465,0.059,0.698c0.246,0.801,0.283,1.814,0.522,2.616v0.407c0.079,0.261,0.154,0.669,0.233,0.93v0.349h0.058
		v0.349h0.059c0.077,0.562,0.155,1.124,0.232,1.686C32.079,21.024,31.513,21.109,31.087,21.233z"/>
</g>
<g id="Layer_2">
	<path fill="#F37A21" d="M23.501,48.602C10.522,48.602,0,59.124,0,72.103s10.522,23.5,23.501,23.5
		c12.979,0,23.501-10.521,23.501-23.5S36.48,48.602,23.501,48.602z M19.635,68.266h0.059V68.15h0.058v-0.116l0.116-0.059v-0.116
		h0.059v-0.116l0.115-0.059l0.117-0.349l0.115-0.058v-0.116c0.085-0.146,0.185-0.203,0.233-0.407
		c0.116,0.039,0.232,0.078,0.349,0.116l0.059,0.117l0.232,0.058l0.058,0.116c0.116,0.039,0.232,0.078,0.349,0.116l0.059,0.116
		l0.232,0.058l0.058,0.116l0.233,0.059l0.058,0.116l0.232,0.058l0.059,0.117l0.232,0.058l0.058,0.116
		c0.116,0.039,0.232,0.078,0.349,0.117l0.059,0.116l0.232,0.058l0.059,0.116l0.232,0.058l0.058,0.117
		c0.117,0.039,0.233,0.077,0.35,0.116l0.058,0.116l0.232,0.059l0.059,0.116l0.232,0.058l0.058,0.117l0.232,0.058l0.059,0.116
		c0.116,0.039,0.232,0.078,0.349,0.116l0.059,0.116l0.232,0.058l0.058,0.116l0.232,0.059l0.059,0.116
		c0.116,0.039,0.232,0.077,0.349,0.116l0.059,0.116h0.116v0.059h0.116l0.059,0.116l0.232,0.058l0.058,0.116h0.116v0.058h0.117
		l0.057,0.116c0.116,0.039,0.233,0.078,0.35,0.116l0.058,0.116l0.232,0.058l0.059,0.116h0.116v0.059h0.116l0.116,0.116
		c-0.033,0.117,0.007,0.05-0.058,0.116l-0.059,0.174H28.18v0.116h-0.058v0.116l-0.116,0.058c-0.039,0.116-0.078,0.233-0.116,0.349
		l-0.116,0.058l-0.059,0.232l-0.116,0.058v0.116h-0.058v0.116l-0.117,0.058v0.116h-0.058c-0.104-0.114-0.127-0.048-0.232-0.116
		L27.076,72.8H26.96v-0.058h-0.117l-0.058-0.116h-0.116v-0.058h-0.116l-0.059-0.116c-0.116-0.039-0.232-0.078-0.349-0.116
		l-0.059-0.117l-0.232-0.058l-0.058-0.117l-0.232-0.058l-0.059-0.116l-0.232-0.058l-0.058-0.116l-0.233-0.058l-0.058-0.116
		c-0.116-0.039-0.232-0.078-0.349-0.116l-0.059-0.117l-0.232-0.058l-0.058-0.117l-0.232-0.058l-0.059-0.116
		c-0.116-0.039-0.232-0.078-0.349-0.117l-0.059-0.116l-0.232-0.058l-0.058-0.116l-0.233-0.058l-0.058-0.117h-0.116v-0.058h-0.116
		l-0.058-0.116c-0.117-0.039-0.233-0.078-0.35-0.117l-0.058-0.116l-0.232-0.058l-0.059-0.117h-0.116v-0.058h-0.116l-0.059-0.116
		c-0.116-0.039-0.232-0.078-0.349-0.116l-0.058-0.116l-0.232-0.058l-0.059-0.116l-0.232-0.059l-0.058-0.116
		c-0.117-0.039-0.233-0.077-0.35-0.116l-0.059-0.116h-0.115v-0.058h-0.117l-0.058-0.116h-0.116v-0.058h-0.116v-0.058l-0.174-0.058
		L19.635,68.266z M18.298,71.928v-0.232h0.058c0.02-0.136,0.039-0.271,0.058-0.407h0.059v-0.058h0.175v0.058
		c0.136,0.02,0.271,0.039,0.407,0.059v0.058h0.232v0.058h0.232v0.058h0.175v0.058h0.232v0.058h0.232v0.058
		c0.135,0.02,0.271,0.039,0.406,0.058v0.058c0.155,0.02,0.311,0.039,0.466,0.058c0.928,0.335,2.034,0.539,2.965,0.872
		c0.232,0.039,0.465,0.078,0.697,0.116v0.058h0.174v0.058H25.1v0.058h0.232v0.059c0.136,0.019,0.271,0.038,0.406,0.058v0.058
		c0.155,0.019,0.311,0.039,0.466,0.058c0.303,0.109,0.669,0.25,1.047,0.291c-0.059,0.174-0.117,0.349-0.175,0.523v0.232h-0.059
		c-0.02,0.136-0.039,0.271-0.058,0.407h-0.059v0.232h-0.059c-0.02,0.136-0.038,0.271-0.058,0.407h-0.058v0.058h-0.233v-0.058
		c-0.136-0.02-0.271-0.039-0.407-0.058v-0.059h-0.232v-0.058h-0.231v-0.059H25.39v-0.058h-0.174v-0.058h-0.233v-0.058H24.75v-0.058
		c-0.135-0.02-0.271-0.039-0.407-0.058v-0.058c-0.154-0.02-0.31-0.039-0.464-0.058c-0.799-0.288-1.762-0.47-2.559-0.756
		c-0.232-0.039-0.465-0.077-0.697-0.116v-0.058h-0.175V73.73c-0.213-0.039-0.426-0.078-0.64-0.116v-0.058h-0.231v-0.058
		c-0.156-0.02-0.311-0.039-0.466-0.058c-0.346-0.125-0.769-0.27-1.162-0.349L18.298,71.928z M17.6,75.3
		c3.022,0.271,6.047,0.542,9.069,0.814v0.058c-0.123,0.141,0.002,0.422-0.059,0.64c-0.095,0.343-0.118,0.779-0.116,1.221
		c-3.022-0.271-6.046-0.542-9.068-0.814C17.484,76.579,17.542,75.939,17.6,75.3z M17.31,78.613h9.127v1.919H17.31V78.613z
		 M29.517,83.613H14.461v-9.417c0.379-0.141,1.087-0.061,1.569-0.058v7.964h11.917v-7.906c0.38-0.141,1.087-0.061,1.569-0.058
		V83.613z M30.099,70.126v0.058h-0.116l-0.058,0.116h-0.117l-0.058,0.116h-0.116l-0.059,0.116h-0.116l-0.058,0.116h-0.117
		l-0.058,0.116H29.11l-0.059,0.116c-0.114,0.096-0.222,0.148-0.406,0.174V70.94c-0.155-0.105-0.185-0.25-0.291-0.407l-0.116-0.058
		v-0.117l-0.116-0.058v-0.116l-0.116-0.058V70.01l-0.116-0.059v-0.116h-0.059l-0.058-0.174l-0.116-0.058v-0.116l-0.175-0.116v-0.116
		l-0.116-0.058l-0.059-0.175h-0.057v-0.116l-0.117-0.058v-0.116l-0.116-0.058v-0.117l-0.116-0.058v-0.116l-0.174-0.116V68.15
		l-0.117-0.059l-0.058-0.174h-0.059v-0.117l-0.116-0.058v-0.116l-0.116-0.059v-0.116l-0.116-0.058v-0.116h-0.059l-0.058-0.174
		l-0.116-0.058v-0.116l-0.175-0.116v-0.117l-0.115-0.058l-0.059-0.174h-0.059v-0.116L25.39,66.29v-0.116l-0.116-0.058v-0.116
		l-0.116-0.058v-0.117l-0.116-0.058V65.65l-0.175-0.116v-0.116l-0.116-0.058l-0.058-0.174h-0.059v-0.116l-0.116-0.058v-0.116
		l-0.116-0.058V64.72l-0.116-0.059v-0.116l-0.116-0.058v-0.116l-0.174-0.116c-0.146-0.207-0.215-0.482-0.407-0.64v-0.058h0.058
		c0.137-0.162,0.343-0.227,0.523-0.349l0.059-0.116h0.115l0.059-0.116h0.116c0.216-0.144,0.41-0.39,0.698-0.465v0.059
		c0.143,0.096,0.135,0.204,0.232,0.348l0.116,0.059l0.059,0.174h0.058v0.116l0.116,0.058v0.116l0.116,0.058v0.116h0.058l0.059,0.175
		l0.116,0.058v0.116l0.174,0.116v0.116l0.117,0.058l0.058,0.174h0.059v0.116l0.116,0.058v0.117l0.116,0.058v0.116l0.116,0.058v0.117
		l0.175,0.116v0.116l0.116,0.058l0.059,0.174h0.057v0.116l0.116,0.058v0.116h0.059l0.059,0.175l0.116,0.058v0.116l0.116,0.058v0.116
		l0.174,0.116v0.116l0.117,0.058v0.116l0.115,0.059v0.116l0.117,0.058v0.116h0.058l0.059,0.174l0.116,0.058v0.116l0.116,0.058v0.117
		l0.174,0.116v0.116l0.116,0.058l0.059,0.174h0.058v0.117l0.117,0.058v0.116l0.115,0.058v0.116h0.059l0.059,0.174l0.115,0.058v0.116
		l0.117,0.059v0.116l0.174,0.116v0.116l0.117,0.058v0.116l0.115,0.058v0.116l0.117,0.058v0.116h0.058
		c0.054,0.08,0.04,0.103,0.058,0.232L30.099,70.126z M31.087,69.835c-0.159,0.047-0.281,0.005-0.407,0.059v-0.059
		c-0.141-0.168-0.04-0.45-0.116-0.698c-0.148-0.488-0.2-1.13-0.349-1.627v-0.349c-0.181-0.601-0.227-1.378-0.407-1.977
		c-0.02-0.232-0.039-0.465-0.058-0.698c-0.153-0.501-0.197-1.176-0.349-1.686v-0.348c-0.131-0.429-0.239-1.024-0.291-1.512
		l0.059-0.058c0.619-0.097,1.24-0.194,1.86-0.291c0.007,0.307,0.102,0.631,0.174,0.872v0.407h0.059v0.291h0.058v0.349h0.058
		c0.02,0.233,0.039,0.465,0.059,0.698c0.246,0.801,0.283,1.814,0.522,2.616v0.407c0.079,0.261,0.154,0.669,0.233,0.93v0.349h0.058
		v0.349h0.059c0.077,0.562,0.155,1.124,0.232,1.686C32.079,69.626,31.513,69.711,31.087,69.835z"/>
</g>
</svg>
