<?xml version="1.0" encoding="utf-8"?>
<!-- Generator: Adobe Illustrator 16.0.0, SVG Export Plug-In . SVG Version: 6.00 Build 0)  -->
<!DOCTYPE svg PUBLIC "-//W3C//DTD SVG 1.1//EN" "http://www.w3.org/Graphics/SVG/1.1/DTD/svg11.dtd">
<svg version="1.1" xmlns="http://www.w3.org/2000/svg" xmlns:xlink="http://www.w3.org/1999/xlink" x="0px" y="0px" width="47px"
	 height="95.803px" viewBox="0 0 47 95.803" enable-background="new 0 0 47 95.803" xml:space="preserve">
<g id="off">
	<path fill="#757777" d="M23.501,0.2C10.521,0.2,0,10.722,0,23.701s10.521,23.5,23.501,23.5s23.501-10.521,23.501-23.5
		S36.48,0.2,23.501,0.2z M17.736,34.055h-4.291V20.251h4.291V34.055z M18.109,16.427h-0.094v0.279h-0.093v0.28l-0.187,0.093v0.187
		l-0.187,0.094v0.187l-0.187,0.187h-0.188c-0.062,0.093-0.124,0.187-0.187,0.279h-0.187v0.094h-0.187v0.093h-0.279v0.094h-0.56
		c-0.927,0.243-2.262-0.661-2.425-1.492c-0.143-0.149-0.311-1.193-0.187-1.586h0.093v-0.279h0.094
		c0.062-0.187,0.124-0.373,0.187-0.56c0.155-0.125,0.311-0.249,0.466-0.373l0.094-0.187h0.187l0.093-0.187h0.187v-0.094l0.56-0.094
		v-0.093c1.441-0.023,1.946,0.268,2.519,1.119h0.094c0.103,0.14,0.145,0.265,0.187,0.467C18.062,15.079,18.228,16.045,18.109,16.427
		z M33.872,27.246v6.809h-4.291v-5.97c0-0.952,0.041-2.008-0.187-2.704v-0.373h-0.093c-0.062-0.187-0.125-0.373-0.187-0.56h-0.094
		l-0.466-0.56c-0.155-0.031-0.312-0.062-0.467-0.094v-0.094c-0.565-0.181-1.986,0.112-2.238,0.28l-0.094,0.187
		c-0.155,0.124-0.311,0.249-0.466,0.373c-0.062,0.187-0.125,0.373-0.187,0.56h-0.094v0.28h-0.093v0.373h-0.094V26.5
		c-0.191,0.671-0.093,1.781-0.093,2.611v4.943H20.44V20.251h4.104v1.865h0.187c0.068-0.313,0.202-0.449,0.373-0.653h0.093v-0.187
		l0.187-0.187h0.187c0.094-0.124,0.187-0.248,0.28-0.373h0.187l0.093-0.187c0.125-0.031,0.249-0.062,0.373-0.093
		c0.941-0.5,2.352-0.757,3.638-0.373h0.467v0.093l0.56,0.094v0.093c0.124,0.031,0.249,0.062,0.373,0.094v0.093h0.187l0.093,0.187
		h0.187v0.094c0.165,0.134,0.226,0.211,0.467,0.279c0.067,0.242,0.146,0.303,0.28,0.467h0.093v0.187l0.187,0.093v0.187h0.094
		c0.062,0.187,0.124,0.373,0.187,0.56h0.093l0.094,0.56h0.093v0.373h0.094v0.561C33.93,24.909,33.872,26.15,33.872,27.246z"/>
</g>
<g id="Layer_2">
	<path fill="#0474B5" d="M23.501,48.802C10.521,48.802,0,59.324,0,72.303s10.521,23.5,23.501,23.5s23.501-10.521,23.501-23.5
		S36.48,48.802,23.501,48.802z M17.736,82.657h-4.291V68.853h4.291V82.657z M18.109,65.029h-0.094v0.279h-0.093v0.28l-0.187,0.093
		v0.187l-0.187,0.094v0.187l-0.187,0.187h-0.188c-0.062,0.093-0.124,0.187-0.187,0.279h-0.187v0.094h-0.187V66.8h-0.279v0.094h-0.56
		c-0.927,0.243-2.262-0.661-2.425-1.492c-0.143-0.149-0.311-1.193-0.187-1.586h0.093v-0.279h0.094
		c0.062-0.187,0.124-0.373,0.187-0.56c0.155-0.125,0.311-0.249,0.466-0.373l0.094-0.187h0.187l0.093-0.187h0.187v-0.094l0.56-0.094
		v-0.093c1.441-0.023,1.946,0.268,2.519,1.119h0.094c0.103,0.14,0.145,0.265,0.187,0.467C18.062,63.681,18.228,64.647,18.109,65.029
		z M33.872,75.848v6.809h-4.291v-5.97c0-0.952,0.041-2.008-0.187-2.704V73.61h-0.093c-0.062-0.187-0.125-0.373-0.187-0.56h-0.094
		l-0.466-0.56c-0.155-0.031-0.312-0.062-0.467-0.094v-0.094c-0.565-0.181-1.986,0.112-2.238,0.28l-0.094,0.187
		c-0.155,0.124-0.311,0.249-0.466,0.373c-0.062,0.187-0.125,0.373-0.187,0.56h-0.094v0.28h-0.093v0.373h-0.094v0.746
		c-0.191,0.671-0.093,1.781-0.093,2.611v4.943H20.44V68.853h4.104v1.865h0.187c0.068-0.313,0.202-0.449,0.373-0.653h0.093v-0.187
		l0.187-0.187h0.187c0.094-0.124,0.187-0.248,0.28-0.373h0.187l0.093-0.187c0.125-0.031,0.249-0.062,0.373-0.093
		c0.941-0.5,2.352-0.757,3.638-0.373h0.467v0.093l0.56,0.094v0.093c0.124,0.031,0.249,0.062,0.373,0.094v0.093h0.187l0.093,0.187
		h0.187v0.094c0.165,0.134,0.226,0.211,0.467,0.279c0.067,0.242,0.146,0.303,0.28,0.467h0.093v0.187l0.187,0.093v0.187h0.094
		c0.062,0.187,0.124,0.373,0.187,0.56h0.093l0.094,0.56h0.093v0.373h0.094v0.561C33.93,73.511,33.872,74.752,33.872,75.848z"/>
</g>
</svg>
