<?xml version="1.0" encoding="utf-8"?>
<!-- Generator: Adobe Illustrator 16.0.0, SVG Export Plug-In . SVG Version: 6.00 Build 0)  -->
<!DOCTYPE svg PUBLIC "-//W3C//DTD SVG 1.1//EN" "http://www.w3.org/Graphics/SVG/1.1/DTD/svg11.dtd">
<svg version="1.1" xmlns="http://www.w3.org/2000/svg" xmlns:xlink="http://www.w3.org/1999/xlink" x="0px" y="0px" width="47px"
	 height="95.604px" viewBox="0 0 47 95.604" enable-background="new 0 0 47 95.604" xml:space="preserve">
<g id="off">
	<g>
		<path fill="#757777" d="M32.551,25.899h-0.093v-0.185h-0.093v-0.277h-0.091c-0.031-0.123-0.062-0.246-0.093-0.369l-0.185-0.092
			v-0.185l-0.186-0.092v-0.184l-0.185-0.093c-0.123-0.154-0.246-0.308-0.368-0.461h-0.186l-0.092-0.185h-0.186l-0.092-0.184h-0.186
			l-0.092-0.185H30.15c-0.931-0.367-2.885-0.379-4.063-0.185h-1.755v0.093c-0.647,0.181-1.492-0.08-2.031-0.093l-4.617-0.092
			c-0.21,0.183-0.541,0.078-0.832,0.185v0.092h-0.276l-0.092,0.185h-0.186l-0.092,0.184h-0.186l-0.092,0.185h-0.186l-0.091,0.184
			c-0.154,0.124-0.309,0.247-0.462,0.37v0.184l-0.186,0.092v0.185l-0.185,0.092c-0.031,0.123-0.062,0.246-0.093,0.369h-0.091v0.277
			h-0.093v0.185h-0.093v0.369c-0.316,0.98-0.154,2.293,0.186,3.14v0.277h0.091c0.031,0.124,0.062,0.246,0.093,0.369h0.093
			c0.03,0.124,0.062,0.247,0.092,0.369c0.093,0.062,0.186,0.124,0.277,0.185v0.185c0.124,0.092,0.247,0.184,0.37,0.277
			c0.122,0.154,0.245,0.308,0.368,0.461h0.186l0.092,0.185c0.124,0.031,0.247,0.062,0.37,0.092l0.092,0.184h0.185v0.093h0.277v0.092
			h0.185v0.092c0.216,0.031,0.431,0.062,0.646,0.093v0.092h0.369v0.092h0.37v0.093c0.338,0.031,0.677,0.062,1.016,0.092v0.092
			c0.738,0.031,1.477,0.062,2.216,0.093v0.092c0.472,0.131,2.512,0.007,2.863-0.092h1.569v-0.093h0.738v-0.092h0.37V32.64h0.646
			v-0.093h0.37v-0.092h0.369v-0.092c0.216-0.031,0.431-0.062,0.646-0.093v-0.092h0.185v-0.092c0.154-0.031,0.309-0.062,0.461-0.093
			l0.093-0.184c0.123-0.031,0.246-0.062,0.37-0.092l0.092-0.185h0.186c0.062-0.092,0.123-0.184,0.185-0.277
			c0.184-0.154,0.368-0.308,0.554-0.461v-0.185c0.092-0.062,0.185-0.123,0.277-0.185c0.062-0.184,0.123-0.369,0.185-0.554h0.093
			v-0.185h0.091v-0.277h0.093v-0.277h0.093v-0.369h0.092V27.93h0.093v-1.108h-0.093C32.612,26.515,32.581,26.207,32.551,25.899z
			 M19.715,29.962c-0.174,0.181-0.467,0.189-0.832,0.185c-0.211-0.23-0.255-0.063-0.461-0.185V29.87
			c-0.153-0.123-0.308-0.246-0.462-0.369v-0.185l-0.184-0.092c-0.147-0.24-0.446-1.787-0.277-2.309h0.093v-0.277h0.092V26.36
			l0.184-0.092v-0.184l0.186-0.093c0.123-0.154,0.246-0.308,0.369-0.461c0.155-0.107,0.209-0.003,0.37-0.185
			c0.628-0.01,0.775,0.09,1.199,0.185c0.062,0.092,0.124,0.184,0.186,0.277h0.092v0.185c0.093,0.062,0.186,0.124,0.277,0.185v0.184
			h0.093C21.16,27.513,20.797,29.681,19.715,29.962z M29.318,28.762c-0.031,0.154-0.062,0.308-0.093,0.462l-0.184,0.092
			c-0.201,0.296-0.249,0.545-0.647,0.646c-0.103,0.107-0.544,0.277-0.83,0.185v-0.093h-0.277v-0.092h-0.185l-0.092-0.185
			c-0.154-0.123-0.309-0.246-0.463-0.37c-0.062-0.184-0.123-0.369-0.185-0.554h-0.093v-0.276h-0.092v-0.554h-0.092v-0.646
			c0.122-0.4,0.246-0.8,0.369-1.2c0.092-0.062,0.185-0.124,0.277-0.185v-0.185c0.216-0.154,0.431-0.308,0.646-0.462
			c0.287-0.01,0.685-0.043,0.831,0.092C29.334,25.658,29.838,27.484,29.318,28.762z"/>
		<path fill="#757777" d="M23.501,0C10.521,0,0,10.522,0,23.501s10.521,23.5,23.501,23.5s23.501-10.521,23.501-23.5
			S36.48,0,23.501,0z M35.968,24.976h-0.093c-0.031,0.585-0.062,1.17-0.093,1.755H35.69v0.461h-0.093v0.369h-0.093v0.369h-0.091
			v0.277h-0.093v0.277h-0.093v0.277h-0.092c-0.031,0.123-0.062,0.246-0.093,0.369h-0.093v0.185h-0.092V29.5h-0.093v0.185h-0.093
			v0.185l-0.185,0.185v0.185c-0.091,0.062-0.184,0.123-0.276,0.184v0.185c-0.123,0.092-0.246,0.185-0.369,0.277v0.185
			c-0.186,0.154-0.37,0.308-0.554,0.461c-0.123,0.154-0.247,0.308-0.37,0.461h-0.185c-0.062,0.093-0.123,0.185-0.185,0.277h-0.186
			l-0.091,0.185c-0.124,0.031-0.247,0.062-0.37,0.092l-0.093,0.185l-0.369,0.092v0.093c-0.124,0.03-0.246,0.062-0.369,0.092v0.092
			h-0.277v0.092h-0.185v0.093c-0.154,0.031-0.309,0.062-0.461,0.092v0.092c-0.216,0.03-0.432,0.061-0.647,0.092v0.092h-0.368v0.092
			h-0.277v0.093h-0.463c-0.8,0.239-1.989,0.184-3.047,0.184h-4.433c-0.77-0.03-1.539-0.061-2.308-0.092
			c-0.831-0.247-1.663-0.493-2.494-0.739v-0.092c-0.185-0.062-0.37-0.123-0.554-0.184v-0.093l-0.369-0.092l-0.093-0.185
			c-0.123-0.031-0.246-0.062-0.37-0.092l-0.091-0.185h-0.186c-0.062-0.092-0.123-0.185-0.185-0.277h-0.185
			c-0.154-0.184-0.309-0.369-0.461-0.554l-0.463-0.369v-0.185c-0.123-0.092-0.246-0.185-0.369-0.277
			c-0.031-0.092-0.062-0.185-0.093-0.277l-0.184-0.092c-0.062-0.185-0.123-0.37-0.185-0.554h-0.093V29.5h-0.093v-0.185h-0.092
			c-0.062-0.185-0.124-0.37-0.186-0.554h-0.092v-0.277h-0.093V28.3h-0.093v-0.37h-0.091v-0.369h-0.093v-0.369h-0.093V26.73H11.22
			c-0.031-0.585-0.062-1.17-0.093-1.755h-0.093v-1.385h0.093v-0.832h0.093c0.03-0.308,0.062-0.616,0.092-0.923h0.093v-0.277h0.093
			v-0.277h0.091c0.062-0.185,0.123-0.369,0.186-0.554h0.092v-0.185h0.093v-0.185l0.185-0.092v-0.185l0.186-0.092v-0.185l0.185-0.092
			v-0.185l0.184-0.092v-0.092l0.185-0.092v-0.185l0.186-0.092v-0.462c-0.1-0.108-0.17-1.211-0.093-1.478h0.093v-0.831h0.092v-0.646
			h0.093v-0.554h0.093v-0.369h0.092v-0.369h0.093v-0.37c0.107-0.294,0.29-0.56,0.368-0.923c0.788,0.019,1.303,0.319,1.847,0.554
			c0.186,0.031,0.37,0.062,0.555,0.092v0.093c0.124,0.031,0.247,0.061,0.37,0.092v0.092h0.276v0.093h0.185v0.092h0.186l0.092,0.185
			h0.277l0.093,0.184c0.184,0.062,0.368,0.124,0.554,0.185l0.092,0.184c0.186,0.062,0.37,0.124,0.554,0.185l0.093,0.185h0.185
			l0.093,0.184l0.369,0.092l0.093,0.185h0.184v0.092c0.226,0.08,0.934-0.155,1.108-0.185c1.17-0.031,2.34-0.062,3.51-0.093
			c0.8,0.093,1.6,0.185,2.401,0.277v-0.092h0.184l0.093-0.185l0.369-0.092l0.093-0.184h0.185l0.093-0.185h0.184l0.093-0.185h0.277
			l0.092-0.184c0.124-0.031,0.247-0.062,0.37-0.093l0.093-0.185h0.184v-0.092h0.277l0.092-0.185h0.186v-0.092
			c0.123-0.031,0.246-0.062,0.368-0.093v-0.092h0.277V13.71h0.186v-0.093c0.185-0.031,0.369-0.062,0.555-0.092
			c0.558-0.241,1.032-0.542,1.846-0.554c0.062,0.216,0.124,0.431,0.186,0.646h0.091c0.031,0.215,0.062,0.431,0.093,0.647h0.093
			v0.369h0.092v0.369h0.093v0.554h0.093v0.646h0.092v0.923c0.169,0.594,0.01,1.233,0,1.847c0.226,0.146,0.057,0.104,0.186,0.277
			c0.123,0.092,0.246,0.185,0.368,0.276v0.185l0.185,0.092v0.185l0.186,0.092c0.03,0.092,0.062,0.185,0.092,0.277h0.093
			c0.031,0.123,0.062,0.246,0.093,0.369h0.092c0.062,0.185,0.124,0.369,0.186,0.554h0.091v0.277h0.093v0.37h0.093v0.369h0.092
			c0.031,0.431,0.062,0.862,0.093,1.293h0.093V24.976z"/>
	</g>
</g>
<g id="Layer_2">
	<g>
		<path fill="#75B5AA" d="M32.551,74.501h-0.093v-0.185h-0.093v-0.277h-0.091c-0.031-0.123-0.062-0.246-0.093-0.369l-0.185-0.092
			v-0.185L31.812,73.3v-0.184l-0.185-0.093c-0.123-0.154-0.246-0.308-0.368-0.461h-0.186l-0.092-0.185h-0.186l-0.092-0.184h-0.186
			l-0.092-0.185H30.15c-0.931-0.367-2.885-0.379-4.063-0.185h-1.755v0.093c-0.647,0.181-1.492-0.08-2.031-0.093l-4.617-0.092
			c-0.21,0.183-0.541,0.078-0.832,0.185v0.092h-0.276l-0.092,0.185h-0.186l-0.092,0.184h-0.186l-0.092,0.185h-0.186l-0.091,0.184
			c-0.154,0.124-0.309,0.247-0.462,0.37V73.3l-0.186,0.092v0.185L14.82,73.67c-0.031,0.123-0.062,0.246-0.093,0.369h-0.091v0.277
			h-0.093v0.185h-0.093v0.369c-0.316,0.98-0.154,2.293,0.186,3.14v0.277h0.091c0.031,0.124,0.062,0.246,0.093,0.369h0.093
			c0.03,0.124,0.062,0.247,0.092,0.369c0.093,0.062,0.186,0.124,0.277,0.185v0.185c0.124,0.092,0.247,0.184,0.37,0.277
			c0.122,0.154,0.245,0.308,0.368,0.461h0.186l0.092,0.185c0.124,0.031,0.247,0.062,0.37,0.092l0.092,0.184h0.185v0.093h0.277v0.092
			h0.185v0.092c0.216,0.031,0.431,0.062,0.646,0.093v0.092h0.369v0.092h0.37v0.093c0.338,0.031,0.677,0.062,1.016,0.092v0.092
			c0.738,0.031,1.477,0.062,2.216,0.093v0.092c0.472,0.131,2.512,0.007,2.863-0.092h1.569v-0.093h0.738v-0.092h0.37v-0.092h0.646
			v-0.093h0.37v-0.092h0.369v-0.092c0.216-0.031,0.431-0.062,0.646-0.093V80.78h0.185v-0.092c0.154-0.031,0.309-0.062,0.461-0.093
			l0.093-0.184c0.123-0.031,0.246-0.062,0.37-0.092l0.092-0.185h0.186c0.062-0.092,0.123-0.184,0.185-0.277
			c0.184-0.154,0.368-0.308,0.554-0.461V79.21c0.092-0.062,0.185-0.123,0.277-0.185c0.062-0.184,0.123-0.369,0.185-0.554h0.093
			v-0.185h0.091V78.01h0.093v-0.277h0.093v-0.369h0.092v-0.832h0.093v-1.108h-0.093C32.612,75.117,32.581,74.809,32.551,74.501z
			 M19.715,78.564c-0.174,0.181-0.467,0.189-0.832,0.185c-0.211-0.23-0.255-0.063-0.461-0.185v-0.092
			c-0.153-0.123-0.308-0.246-0.462-0.369v-0.185l-0.184-0.092c-0.147-0.24-0.446-1.787-0.277-2.309h0.093V75.24h0.092v-0.277
			l0.184-0.092v-0.184l0.186-0.093c0.123-0.154,0.246-0.308,0.369-0.461c0.155-0.107,0.209-0.003,0.37-0.185
			c0.628-0.01,0.775,0.09,1.199,0.185c0.062,0.092,0.124,0.184,0.186,0.277h0.092v0.185c0.093,0.062,0.186,0.124,0.277,0.185v0.184
			h0.093C21.16,76.115,20.797,78.283,19.715,78.564z M29.318,77.364c-0.031,0.154-0.062,0.308-0.093,0.462l-0.184,0.092
			c-0.201,0.296-0.249,0.545-0.647,0.646c-0.103,0.107-0.544,0.277-0.83,0.185v-0.093h-0.277v-0.092h-0.185l-0.092-0.185
			c-0.154-0.123-0.309-0.246-0.463-0.37c-0.062-0.184-0.123-0.369-0.185-0.554h-0.093v-0.276h-0.092v-0.554h-0.092v-0.646
			c0.122-0.4,0.246-0.8,0.369-1.2c0.092-0.062,0.185-0.124,0.277-0.185v-0.185c0.216-0.154,0.431-0.308,0.646-0.462
			c0.287-0.01,0.685-0.043,0.831,0.092C29.334,74.26,29.838,76.086,29.318,77.364z"/>
		<path fill="#75B5AA" d="M23.501,48.602C10.521,48.602,0,59.124,0,72.103s10.521,23.5,23.501,23.5s23.501-10.521,23.501-23.5
			S36.48,48.602,23.501,48.602z M35.968,73.578h-0.093c-0.031,0.585-0.062,1.17-0.093,1.755H35.69v0.461h-0.093v0.369h-0.093v0.369
			h-0.091v0.277h-0.093v0.277h-0.093v0.277h-0.092c-0.031,0.123-0.062,0.246-0.093,0.369h-0.093v0.185h-0.092v0.185h-0.093v0.185
			h-0.093v0.185l-0.185,0.185v0.185c-0.091,0.062-0.184,0.123-0.276,0.184v0.185c-0.123,0.092-0.246,0.185-0.369,0.277v0.185
			c-0.186,0.154-0.37,0.308-0.554,0.461c-0.123,0.154-0.247,0.308-0.37,0.461h-0.185c-0.062,0.093-0.123,0.185-0.185,0.277h-0.186
			l-0.091,0.185c-0.124,0.031-0.247,0.062-0.37,0.092l-0.093,0.185l-0.369,0.092v0.093c-0.124,0.03-0.246,0.062-0.369,0.092v0.092
			h-0.277v0.092h-0.185v0.093c-0.154,0.031-0.309,0.062-0.461,0.092v0.092c-0.216,0.03-0.432,0.061-0.647,0.092v0.092h-0.368v0.092
			h-0.277v0.093h-0.463c-0.8,0.239-1.989,0.184-3.047,0.184h-4.433c-0.77-0.03-1.539-0.061-2.308-0.092
			c-0.831-0.247-1.663-0.493-2.494-0.739v-0.092c-0.185-0.062-0.37-0.123-0.554-0.184v-0.093l-0.369-0.092l-0.093-0.185
			c-0.123-0.031-0.246-0.062-0.37-0.092l-0.091-0.185h-0.186c-0.062-0.092-0.123-0.185-0.185-0.277h-0.185
			c-0.154-0.184-0.309-0.369-0.461-0.554l-0.463-0.369v-0.185c-0.123-0.092-0.246-0.185-0.369-0.277
			c-0.031-0.092-0.062-0.185-0.093-0.277l-0.184-0.092c-0.062-0.185-0.123-0.37-0.185-0.554h-0.093v-0.185h-0.093v-0.185h-0.092
			c-0.062-0.185-0.124-0.37-0.186-0.554h-0.092v-0.277h-0.093v-0.185h-0.093v-0.37h-0.091v-0.369h-0.093v-0.369h-0.093v-0.461H11.22
			c-0.031-0.585-0.062-1.17-0.093-1.755h-0.093v-1.385h0.093v-0.832h0.093c0.03-0.308,0.062-0.616,0.092-0.923h0.093v-0.277h0.093
			v-0.277h0.091c0.062-0.185,0.123-0.369,0.186-0.554h0.092v-0.185h0.093V68.96l0.185-0.092v-0.185l0.186-0.092v-0.185l0.185-0.092
			v-0.185l0.184-0.092v-0.092l0.185-0.092v-0.185l0.186-0.092v-0.462c-0.1-0.108-0.17-1.211-0.093-1.478h0.093v-0.831h0.092v-0.646
			h0.093v-0.554h0.093v-0.369h0.092v-0.369h0.093v-0.37c0.107-0.294,0.29-0.56,0.368-0.923c0.788,0.019,1.303,0.319,1.847,0.554
			c0.186,0.031,0.37,0.062,0.555,0.092v0.093c0.124,0.031,0.247,0.061,0.37,0.092v0.092h0.276v0.093h0.185v0.092h0.186l0.092,0.185
			h0.277l0.093,0.184c0.184,0.062,0.368,0.124,0.554,0.185l0.092,0.184c0.186,0.062,0.37,0.124,0.554,0.185l0.093,0.185h0.185
			l0.093,0.184l0.369,0.092l0.093,0.185h0.184v0.092c0.226,0.08,0.934-0.155,1.108-0.185c1.17-0.031,2.34-0.062,3.51-0.093
			c0.8,0.093,1.6,0.185,2.401,0.277v-0.092h0.184l0.093-0.185l0.369-0.092l0.093-0.184h0.185l0.093-0.185h0.184l0.093-0.185h0.277
			l0.092-0.184c0.124-0.031,0.247-0.062,0.37-0.093l0.093-0.185h0.184v-0.092h0.277l0.092-0.185h0.186v-0.092
			c0.123-0.031,0.246-0.062,0.368-0.093v-0.092h0.277v-0.092h0.186v-0.093c0.185-0.031,0.369-0.062,0.555-0.092
			c0.558-0.241,1.032-0.542,1.846-0.554c0.062,0.216,0.124,0.431,0.186,0.646h0.091c0.031,0.215,0.062,0.431,0.093,0.647h0.093
			v0.369h0.092v0.369h0.093v0.554h0.093v0.646h0.092v0.923c0.169,0.594,0.01,1.233,0,1.847c0.226,0.146,0.057,0.104,0.186,0.277
			c0.123,0.092,0.246,0.185,0.368,0.276v0.185l0.185,0.092v0.185l0.186,0.092c0.03,0.092,0.062,0.185,0.092,0.277h0.093
			c0.031,0.123,0.062,0.246,0.093,0.369h0.092c0.062,0.185,0.124,0.369,0.186,0.554h0.091v0.277h0.093v0.37h0.093v0.369h0.092
			c0.031,0.431,0.062,0.862,0.093,1.293h0.093V73.578z"/>
	</g>
</g>
</svg>
