<?xml version="1.0" encoding="utf-8"?>
<!-- Generator: Adobe Illustrator 16.0.0, SVG Export Plug-In . SVG Version: 6.00 Build 0)  -->
<!DOCTYPE svg PUBLIC "-//W3C//DTD SVG 1.1//EN" "http://www.w3.org/Graphics/SVG/1.1/DTD/svg11.dtd">
<svg version="1.1" xmlns="http://www.w3.org/2000/svg" xmlns:xlink="http://www.w3.org/1999/xlink" x="0px" y="0px" width="47px"
	 height="95.604px" viewBox="0 0 47 95.604" enable-background="new 0 0 47 95.604" xml:space="preserve">
<g id="off">
	<path fill="#757777" d="M23.501,0C10.522,0,0,10.522,0,23.501s10.522,23.5,23.501,23.5s23.5-10.521,23.5-23.5S36.48,0,23.501,0z
		 M34.797,17.146c-0.188,0.225-0.375,0.45-0.562,0.675c-0.113,0.075-0.226,0.15-0.338,0.225c0,0.075,0,0.15,0,0.225
		c-0.074,0.038-0.149,0.075-0.225,0.113c-0.112,1.049-0.225,2.098-0.337,3.147c-0.038,0-0.075,0-0.112,0c0,0.187,0,0.375,0,0.562
		c-0.038,0-0.075,0-0.112,0c0,0.15,0,0.3,0,0.45c-0.038,0-0.075,0-0.112,0c0,0.149,0,0.299,0,0.449c-0.038,0-0.075,0-0.113,0
		c0,0.112,0,0.225,0,0.337c-0.037,0-0.074,0-0.112,0c-0.037,0.262-0.074,0.524-0.112,0.787c-0.037,0-0.075,0-0.112,0
		c0,0.075,0,0.15,0,0.225c-0.037,0-0.075,0-0.112,0c0,0.112,0,0.225,0,0.337c-0.037,0-0.075,0-0.112,0c0,0.075,0,0.15,0,0.225
		c-0.037,0-0.075,0-0.112,0c0,0.112,0,0.225,0,0.337c-0.037,0-0.075,0-0.112,0c-0.075,0.225-0.15,0.45-0.225,0.674
		c-0.038,0-0.075,0-0.113,0c-0.037,0.15-0.074,0.3-0.112,0.45c-0.074,0.038-0.149,0.075-0.225,0.112
		c-0.037,0.15-0.075,0.3-0.112,0.45c-0.037,0-0.075,0-0.112,0c-0.037,0.112-0.075,0.225-0.112,0.337
		c-0.075,0.037-0.15,0.075-0.225,0.112c0,0.075,0,0.15,0,0.225c-0.112,0.075-0.225,0.15-0.338,0.225c0,0.075,0,0.15,0,0.225
		c-0.074,0.037-0.149,0.075-0.225,0.112c-0.037,0.112-0.075,0.225-0.112,0.337c-0.188,0.149-0.375,0.3-0.562,0.449
		c0,0.075,0,0.15,0,0.225c-0.338,0.299-0.675,0.6-1.012,0.899c-0.112,0.15-0.225,0.3-0.337,0.45c-0.075,0-0.15,0-0.226,0
		c-0.112,0.15-0.225,0.3-0.337,0.45c-0.075,0-0.149,0-0.225,0c-0.037,0.075-0.075,0.15-0.112,0.225c-0.038,0-0.075,0-0.112,0
		c-0.038,0.075-0.075,0.15-0.112,0.225c-0.075,0-0.15,0-0.226,0c-0.037,0.075-0.074,0.149-0.112,0.225c-0.074,0-0.149,0-0.225,0
		c-0.037,0.075-0.075,0.15-0.112,0.225c-0.225,0.075-0.449,0.15-0.675,0.225c0,0.037,0,0.075,0,0.112c-0.074,0-0.149,0-0.225,0
		c0,0.038,0,0.075,0,0.112c-0.225,0.075-0.449,0.15-0.674,0.225c0,0.038,0,0.075,0,0.113c-0.937,0.299-1.874,0.599-2.811,0.899
		c-0.225,0-0.449,0-0.674,0c-1.493,0.439-4.369,0.308-5.732-0.112c-0.188,0-0.375,0-0.562,0c0-0.038,0-0.075,0-0.112
		c-0.262-0.038-0.524-0.075-0.786-0.112c0-0.038,0-0.075,0-0.113c-0.075,0-0.15,0-0.225,0c0-0.037,0-0.075,0-0.112
		c-0.113,0-0.226,0-0.338,0c0-0.037,0-0.075,0-0.112c-0.112,0-0.225,0-0.337,0c-0.734-0.322-1.505-0.79-2.248-1.124
		c-0.096-0.126,0.016-0.018-0.112-0.112c0-0.038,0-0.075,0-0.112c2.295-0.018,4.126-0.328,5.62-1.124c0.074,0,0.149,0,0.225,0
		c0-0.038,0-0.075,0-0.112c0.075,0,0.149,0,0.225,0c0-0.038,0-0.075,0-0.113c0.075,0,0.15,0,0.225,0
		c0.038-0.075,0.075-0.149,0.112-0.225c0.075,0,0.15,0,0.226,0c0-0.038,0-0.075,0-0.112c0.251-0.153,0.153,0.046,0.337-0.225
		c0.225-0.068,0.097,0.015,0.225-0.113c-0.712-0.262-1.424-0.524-2.136-0.787c-0.037-0.075-0.074-0.15-0.112-0.225
		c-0.149-0.038-0.3-0.075-0.449-0.113c-0.112-0.149-0.225-0.3-0.337-0.449c-0.075,0-0.15,0-0.226,0
		c-0.112-0.15-0.225-0.3-0.337-0.45c-0.037,0-0.075,0-0.112,0c0-0.075,0-0.15,0-0.225c-0.112-0.075-0.225-0.15-0.337-0.225
		c-0.217-0.312-0.368-0.704-0.45-1.124c0.127-0.096,0.018,0.015,0.112-0.112c0.6,0,1.199,0,1.799,0c0-0.038,0-0.075,0-0.112
		c-0.524-0.262-1.049-0.524-1.573-0.787c-0.113-0.15-0.226-0.3-0.338-0.45c-0.074,0-0.149,0-0.225,0
		c-0.112-0.15-0.225-0.3-0.337-0.45c-0.038,0-0.075,0-0.112,0c0-0.075,0-0.15,0-0.225c-0.112-0.075-0.225-0.15-0.338-0.225
		c0-0.075,0-0.15,0-0.225c-0.074-0.038-0.149-0.075-0.225-0.112c-0.225-0.637-0.449-1.274-0.674-1.911c0-0.262,0-0.524,0-0.787
		c0.599,0.188,1.198,0.375,1.798,0.562c0.097-0.126-0.015-0.018,0.112-0.112c-0.139-0.488-0.353-0.383-0.562-0.674
		c0-0.075,0-0.15,0-0.225c-0.112-0.075-0.225-0.15-0.337-0.225c0-0.075,0-0.15,0-0.225c-0.075-0.038-0.15-0.075-0.226-0.113
		c-0.037-0.149-0.074-0.3-0.112-0.449c-0.037,0-0.074,0-0.112,0c-0.037-0.15-0.075-0.3-0.112-0.45c-0.037,0-0.075,0-0.112,0
		c0-0.112,0-0.225,0-0.337c-0.335-0.892-0.291-2.041,0-2.922c0.151-0.459,0.006-0.725,0.337-1.011c0-0.075,0-0.15,0-0.225
		c0.038,0,0.075,0,0.112,0c0.6,0.637,1.199,1.274,1.799,1.911c0.075,0,0.149,0,0.225,0c0.112,0.149,0.225,0.299,0.337,0.449
		c0.075,0,0.15,0,0.226,0c0.074,0.112,0.149,0.225,0.225,0.337c0.074,0,0.149,0,0.225,0c0.075,0.112,0.149,0.225,0.225,0.337
		c0.149,0.038,0.3,0.075,0.449,0.113c0.038,0.075,0.075,0.15,0.113,0.225c0.112,0.038,0.225,0.075,0.337,0.112
		c0,0.038,0,0.075,0,0.112c0.225,0.075,0.449,0.15,0.674,0.225c0,0.038,0,0.075,0,0.112c0.075,0,0.15,0,0.226,0
		c0,0.038,0,0.075,0,0.112c0.225,0.075,0.449,0.15,0.674,0.225c0,0.037,0,0.075,0,0.112c0.112,0,0.225,0,0.337,0
		c0,0.037,0,0.075,0,0.112c0.075,0,0.15,0,0.226,0c0,0.038,0,0.075,0,0.112c0.225,0.038,0.449,0.075,0.674,0.112
		c0.98,0.388,2.342,0.698,3.597,0.787c-0.037-0.562-0.074-1.124-0.112-1.686c0.038,0,0.075,0,0.112,0c0-0.225,0-0.45,0-0.674
		c0.038,0,0.075,0,0.112,0c0-0.15,0-0.3,0-0.45c0.038,0,0.075,0,0.112,0c0-0.112,0-0.225,0-0.337c0.038,0,0.075,0,0.113,0
		c0-0.075,0-0.15,0-0.225c0.037,0,0.074,0,0.112,0c0.074-0.225,0.149-0.45,0.225-0.674c0.112-0.075,0.225-0.15,0.337-0.225
		c0-0.075,0-0.15,0-0.225c0.225-0.188,0.449-0.375,0.675-0.562c0.074-0.112,0.149-0.225,0.225-0.337c0.075,0,0.149,0,0.225,0
		c0.037-0.075,0.075-0.149,0.112-0.225c0.075,0,0.15,0,0.225,0l0.226-0.225c0.074,0,0.149,0,0.225,0c0-0.038,0-0.075,0-0.112
		c0.075,0,0.149,0,0.225,0c0-0.038,0-0.075,0-0.113c0.075,0,0.149,0,0.225,0c0-0.037,0-0.075,0-0.112
		c0.337-0.038,0.675-0.075,1.012-0.112c0-0.038,0-0.075,0-0.112c0.464-0.134,2.194,0.105,2.473,0.225c0,0.038,0,0.075,0,0.112
		c0.225,0.075,0.449,0.15,0.675,0.225c0,0.037,0,0.075,0,0.112c0.074,0,0.149,0,0.225,0c0.037,0.075,0.075,0.15,0.112,0.225
		c0.363,0.24,0.778,0.311,1.012,0.674c0.822-0.097,1.606-0.502,2.248-0.787c0.112,0,0.225,0,0.337,0c0-0.038,0-0.075,0-0.112
		c0.225-0.075,0.449-0.15,0.675-0.225c-0.075,0.347-0.376,0.967-0.562,1.236c-0.112,0.075-0.225,0.15-0.337,0.225
		c0,0.075,0,0.15,0,0.225c-0.188,0.15-0.375,0.3-0.562,0.45c-0.156,0.21,0.049,0.16-0.225,0.337
		c0.096,0.126-0.015,0.018,0.112,0.112c0.32,0.22,1.516-0.417,2.136-0.45C35.75,16.447,35.207,16.736,34.797,17.146z"/>
</g>
<g id="Layer_2">
	<path fill="#73CFE7" d="M23.501,48.602C10.522,48.602,0,59.124,0,72.103s10.522,23.5,23.501,23.5s23.5-10.521,23.5-23.5
		S36.48,48.602,23.501,48.602z M34.797,65.748c-0.188,0.225-0.375,0.45-0.562,0.675c-0.113,0.075-0.226,0.15-0.338,0.225
		c0,0.075,0,0.15,0,0.225c-0.074,0.038-0.149,0.075-0.225,0.113c-0.112,1.049-0.225,2.098-0.337,3.147c-0.038,0-0.075,0-0.112,0
		c0,0.187,0,0.375,0,0.562c-0.038,0-0.075,0-0.112,0c0,0.15,0,0.3,0,0.45c-0.038,0-0.075,0-0.112,0c0,0.149,0,0.299,0,0.449
		c-0.038,0-0.075,0-0.113,0c0,0.112,0,0.225,0,0.337c-0.037,0-0.074,0-0.112,0c-0.037,0.262-0.074,0.524-0.112,0.787
		c-0.037,0-0.075,0-0.112,0c0,0.075,0,0.15,0,0.225c-0.037,0-0.075,0-0.112,0c0,0.112,0,0.225,0,0.337c-0.037,0-0.075,0-0.112,0
		c0,0.075,0,0.15,0,0.225c-0.037,0-0.075,0-0.112,0c0,0.112,0,0.225,0,0.337c-0.037,0-0.075,0-0.112,0
		c-0.075,0.225-0.15,0.45-0.225,0.674c-0.038,0-0.075,0-0.113,0c-0.037,0.15-0.074,0.3-0.112,0.45
		c-0.074,0.038-0.149,0.075-0.225,0.112c-0.037,0.15-0.075,0.3-0.112,0.45c-0.037,0-0.075,0-0.112,0
		c-0.037,0.112-0.075,0.225-0.112,0.337c-0.075,0.037-0.15,0.075-0.225,0.112c0,0.075,0,0.15,0,0.225
		c-0.112,0.075-0.225,0.15-0.338,0.225c0,0.075,0,0.15,0,0.225c-0.074,0.037-0.149,0.075-0.225,0.112
		c-0.037,0.112-0.075,0.225-0.112,0.337c-0.188,0.149-0.375,0.3-0.562,0.449c0,0.075,0,0.15,0,0.225
		c-0.338,0.299-0.675,0.6-1.012,0.899c-0.112,0.15-0.225,0.3-0.337,0.45c-0.075,0-0.15,0-0.226,0c-0.112,0.15-0.225,0.3-0.337,0.45
		c-0.075,0-0.149,0-0.225,0c-0.037,0.075-0.075,0.15-0.112,0.225c-0.038,0-0.075,0-0.112,0c-0.038,0.075-0.075,0.15-0.112,0.225
		c-0.075,0-0.15,0-0.226,0c-0.037,0.075-0.074,0.149-0.112,0.225c-0.074,0-0.149,0-0.225,0c-0.037,0.075-0.075,0.15-0.112,0.225
		c-0.225,0.075-0.449,0.15-0.675,0.225c0,0.037,0,0.075,0,0.112c-0.074,0-0.149,0-0.225,0c0,0.038,0,0.075,0,0.112
		c-0.225,0.075-0.449,0.15-0.674,0.225c0,0.038,0,0.075,0,0.113c-0.937,0.299-1.874,0.599-2.811,0.899c-0.225,0-0.449,0-0.674,0
		c-1.493,0.439-4.369,0.308-5.732-0.112c-0.188,0-0.375,0-0.562,0c0-0.038,0-0.075,0-0.112c-0.262-0.038-0.524-0.075-0.786-0.112
		c0-0.038,0-0.075,0-0.113c-0.075,0-0.15,0-0.225,0c0-0.037,0-0.075,0-0.112c-0.113,0-0.226,0-0.338,0c0-0.037,0-0.075,0-0.112
		c-0.112,0-0.225,0-0.337,0c-0.734-0.322-1.505-0.79-2.248-1.124c-0.096-0.126,0.016-0.018-0.112-0.112c0-0.038,0-0.075,0-0.112
		c2.295-0.018,4.126-0.328,5.62-1.124c0.074,0,0.149,0,0.225,0c0-0.038,0-0.075,0-0.112c0.075,0,0.149,0,0.225,0
		c0-0.038,0-0.075,0-0.113c0.075,0,0.15,0,0.225,0c0.038-0.075,0.075-0.149,0.112-0.225c0.075,0,0.15,0,0.226,0
		c0-0.038,0-0.075,0-0.112c0.251-0.153,0.153,0.046,0.337-0.225c0.225-0.068,0.097,0.015,0.225-0.113
		c-0.712-0.262-1.424-0.524-2.136-0.787c-0.037-0.075-0.074-0.15-0.112-0.225c-0.149-0.038-0.3-0.075-0.449-0.113
		c-0.112-0.149-0.225-0.3-0.337-0.449c-0.075,0-0.15,0-0.226,0c-0.112-0.15-0.225-0.3-0.337-0.45c-0.037,0-0.075,0-0.112,0
		c0-0.075,0-0.15,0-0.225c-0.112-0.075-0.225-0.15-0.337-0.225c-0.217-0.312-0.368-0.704-0.45-1.124
		c0.127-0.096,0.018,0.015,0.112-0.112c0.6,0,1.199,0,1.799,0c0-0.038,0-0.075,0-0.112c-0.524-0.262-1.049-0.524-1.573-0.787
		c-0.113-0.15-0.226-0.3-0.338-0.45c-0.074,0-0.149,0-0.225,0c-0.112-0.15-0.225-0.3-0.337-0.45c-0.038,0-0.075,0-0.112,0
		c0-0.075,0-0.15,0-0.225c-0.112-0.075-0.225-0.15-0.338-0.225c0-0.075,0-0.15,0-0.225c-0.074-0.038-0.149-0.075-0.225-0.112
		c-0.225-0.637-0.449-1.274-0.674-1.911c0-0.262,0-0.524,0-0.787c0.599,0.188,1.198,0.375,1.798,0.562
		c0.097-0.126-0.015-0.018,0.112-0.112c-0.139-0.488-0.353-0.383-0.562-0.674c0-0.075,0-0.15,0-0.225
		c-0.112-0.075-0.225-0.15-0.337-0.225c0-0.075,0-0.15,0-0.225c-0.075-0.038-0.15-0.075-0.226-0.113
		c-0.037-0.149-0.074-0.3-0.112-0.449c-0.037,0-0.074,0-0.112,0c-0.037-0.15-0.075-0.3-0.112-0.45c-0.037,0-0.075,0-0.112,0
		c0-0.112,0-0.225,0-0.337c-0.335-0.892-0.291-2.041,0-2.922c0.151-0.459,0.006-0.725,0.337-1.011c0-0.075,0-0.15,0-0.225
		c0.038,0,0.075,0,0.112,0c0.6,0.637,1.199,1.274,1.799,1.911c0.075,0,0.149,0,0.225,0c0.112,0.149,0.225,0.299,0.337,0.449
		c0.075,0,0.15,0,0.226,0c0.074,0.112,0.149,0.225,0.225,0.337c0.074,0,0.149,0,0.225,0c0.075,0.112,0.149,0.225,0.225,0.337
		c0.149,0.038,0.3,0.075,0.449,0.113c0.038,0.075,0.075,0.15,0.113,0.225c0.112,0.038,0.225,0.075,0.337,0.112
		c0,0.038,0,0.075,0,0.112c0.225,0.075,0.449,0.15,0.674,0.225c0,0.038,0,0.075,0,0.112c0.075,0,0.15,0,0.226,0
		c0,0.038,0,0.075,0,0.112c0.225,0.075,0.449,0.15,0.674,0.225c0,0.037,0,0.075,0,0.112c0.112,0,0.225,0,0.337,0
		c0,0.037,0,0.075,0,0.112c0.075,0,0.15,0,0.226,0c0,0.038,0,0.075,0,0.112c0.225,0.038,0.449,0.075,0.674,0.112
		c0.98,0.388,2.342,0.698,3.597,0.787c-0.037-0.562-0.074-1.124-0.112-1.686c0.038,0,0.075,0,0.112,0c0-0.225,0-0.45,0-0.674
		c0.038,0,0.075,0,0.112,0c0-0.15,0-0.3,0-0.45c0.038,0,0.075,0,0.112,0c0-0.112,0-0.225,0-0.337c0.038,0,0.075,0,0.113,0
		c0-0.075,0-0.15,0-0.225c0.037,0,0.074,0,0.112,0c0.074-0.225,0.149-0.45,0.225-0.674c0.112-0.075,0.225-0.15,0.337-0.225
		c0-0.075,0-0.15,0-0.225c0.225-0.188,0.449-0.375,0.675-0.562c0.074-0.112,0.149-0.225,0.225-0.337c0.075,0,0.149,0,0.225,0
		c0.037-0.075,0.075-0.149,0.112-0.225c0.075,0,0.15,0,0.225,0l0.226-0.225c0.074,0,0.149,0,0.225,0c0-0.038,0-0.075,0-0.112
		c0.075,0,0.149,0,0.225,0c0-0.038,0-0.075,0-0.113c0.075,0,0.149,0,0.225,0c0-0.037,0-0.075,0-0.112
		c0.337-0.038,0.675-0.075,1.012-0.112c0-0.038,0-0.075,0-0.112c0.464-0.134,2.194,0.105,2.473,0.225c0,0.038,0,0.075,0,0.112
		c0.225,0.075,0.449,0.15,0.675,0.225c0,0.037,0,0.075,0,0.112c0.074,0,0.149,0,0.225,0c0.037,0.075,0.075,0.15,0.112,0.225
		c0.363,0.24,0.778,0.311,1.012,0.674c0.822-0.097,1.606-0.502,2.248-0.787c0.112,0,0.225,0,0.337,0c0-0.038,0-0.075,0-0.112
		c0.225-0.075,0.449-0.15,0.675-0.225c-0.075,0.347-0.376,0.967-0.562,1.236c-0.112,0.075-0.225,0.15-0.337,0.225
		c0,0.075,0,0.15,0,0.225c-0.188,0.15-0.375,0.3-0.562,0.45c-0.156,0.21,0.049,0.16-0.225,0.337
		c0.096,0.126-0.015,0.018,0.112,0.112c0.32,0.22,1.516-0.417,2.136-0.45C35.75,65.049,35.207,65.338,34.797,65.748z"/>
</g>
</svg>
